<mxfile host="app.diagrams.net" agent="Mozilla/5.0 (Windows NT 10.0; Win64; x64) AppleWebKit/537.36 (KHTML, like Gecko) Chrome/122.0.6261.95 Safari/537.36" version="27.2.0">
  <diagram name="第 1 页" id="caSSPNuGtUMWCYe1wrcc">
    <mxGraphModel dx="3203" dy="1460" grid="1" gridSize="10" guides="1" tooltips="1" connect="1" arrows="1" fold="1" page="1" pageScale="1" pageWidth="827" pageHeight="1169" math="0" shadow="0">
      <root>
        <mxCell id="0" />
        <mxCell id="1" parent="0" />
        <mxCell id="lqIfvsUhiG68GUQfDP23-1" value="&lt;span style=&quot;font-size: 17px;&quot;&gt;生力（广东）啤酒有限公司&lt;/span&gt;&lt;span style=&quot;font-size: 17px;&quot;&gt;--网络拓扑图&lt;/span&gt;" style="whiteSpace=wrap;html=1;rounded=0;shadow=0;comic=0;strokeWidth=1;fontFamily=Verdana;fontSize=14;verticalAlign=top;fontStyle=1;strokeColor=#000000;" vertex="1" parent="1">
          <mxGeometry x="90" y="160" width="1408.9" height="830" as="geometry" />
        </mxCell>
        <mxCell id="lqIfvsUhiG68GUQfDP23-2" value="" style="whiteSpace=wrap;html=1;fillColor=#f5f5f5;strokeColor=#666666;fontColor=#333333;" vertex="1" parent="1">
          <mxGeometry x="100" y="200" width="1388.9" height="780" as="geometry" />
        </mxCell>
        <mxCell id="lqIfvsUhiG68GUQfDP23-3" value="联通专线50M *1" style="text;strokeColor=none;align=center;fillColor=none;html=1;verticalAlign=middle;whiteSpace=wrap;rounded=0;" vertex="1" parent="1">
          <mxGeometry x="126.77000000000044" y="417" width="95.49" height="30" as="geometry" />
        </mxCell>
        <mxCell id="lqIfvsUhiG68GUQfDP23-4" value="电信专线宽带50M *1" style="text;strokeColor=none;align=center;fillColor=none;html=1;verticalAlign=middle;whiteSpace=wrap;rounded=0;" vertex="1" parent="1">
          <mxGeometry x="134.51000000000022" y="594" width="80" height="30" as="geometry" />
        </mxCell>
        <mxCell id="lqIfvsUhiG68GUQfDP23-5" style="edgeStyle=orthogonalEdgeStyle;rounded=0;orthogonalLoop=1;jettySize=auto;html=1;" edge="1" parent="1" source="lqIfvsUhiG68GUQfDP23-6" target="lqIfvsUhiG68GUQfDP23-7">
          <mxGeometry relative="1" as="geometry" />
        </mxCell>
        <mxCell id="lqIfvsUhiG68GUQfDP23-6" value="网络准入" style="sketch=0;points=[[0.015,0.015,0],[0.985,0.015,0],[0.985,0.985,0],[0.015,0.985,0],[0.25,0,0],[0.5,0,0],[0.75,0,0],[1,0.25,0],[1,0.5,0],[1,0.75,0],[0.75,1,0],[0.5,1,0],[0.25,1,0],[0,0.75,0],[0,0.5,0],[0,0.25,0]];verticalLabelPosition=bottom;html=1;verticalAlign=top;aspect=fixed;align=center;pointerEvents=1;shape=mxgraph.cisco19.rect;prIcon=asa_5500;fillColor=#FAFAFA;strokeColor=#005073;fontColor=#FF0000;textShadow=1;" vertex="1" parent="1">
          <mxGeometry x="696.2299999999996" y="281.53000000000065" width="102.4" height="80" as="geometry" />
        </mxCell>
        <mxCell id="lqIfvsUhiG68GUQfDP23-7" value="核心交换机" style="shape=mxgraph.cisco.misc.route_switch_processor;html=1;dashed=0;fillColor=#036897;strokeColor=#ffffff;strokeWidth=2;verticalLabelPosition=bottom;verticalAlign=top;rounded=0;shadow=0;comic=0;fontFamily=Verdana;fontSize=14;fontColor=#FF0000;textShadow=1;" vertex="1" parent="1">
          <mxGeometry x="697.4300000000003" y="431.1300000000001" width="100" height="80.75" as="geometry" />
        </mxCell>
        <mxCell id="lqIfvsUhiG68GUQfDP23-8" value="楼层交换机" style="shape=mxgraph.cisco.switches.workgroup_switch;sketch=0;html=1;pointerEvents=1;dashed=0;fillColor=#036897;strokeColor=#ffffff;strokeWidth=2;verticalLabelPosition=bottom;verticalAlign=top;align=center;outlineConnect=0;fontSize=13;fontColor=#FF0000;textShadow=1;" vertex="1" parent="1">
          <mxGeometry x="700.8999999999996" y="693.9699999999993" width="93.07" height="36.06" as="geometry" />
        </mxCell>
        <mxCell id="lqIfvsUhiG68GUQfDP23-9" style="edgeStyle=orthogonalEdgeStyle;rounded=0;orthogonalLoop=1;jettySize=auto;html=1;entryX=0.5;entryY=0;entryDx=0;entryDy=0;entryPerimeter=0;" edge="1" parent="1" source="lqIfvsUhiG68GUQfDP23-7" target="lqIfvsUhiG68GUQfDP23-8">
          <mxGeometry relative="1" as="geometry" />
        </mxCell>
        <mxCell id="lqIfvsUhiG68GUQfDP23-10" value="无线AP" style="points=[[0.03,0.36,0],[0.18,0,0],[0.5,0.34,0],[0.82,0,0],[0.97,0.36,0],[1,0.67,0],[0.975,0.975,0],[0.5,1,0],[0.025,0.975,0],[0,0.67,0]];verticalLabelPosition=bottom;sketch=0;html=1;verticalAlign=top;aspect=fixed;align=center;pointerEvents=1;shape=mxgraph.cisco19.wireless_access_point;fillColor=#005073;strokeColor=none;labelBorderColor=none;textShadow=1;fontColor=#FF0000;" vertex="1" parent="1">
          <mxGeometry x="549.6999999999989" y="669" width="63" height="63" as="geometry" />
        </mxCell>
        <mxCell id="lqIfvsUhiG68GUQfDP23-11" style="edgeStyle=orthogonalEdgeStyle;rounded=0;orthogonalLoop=1;jettySize=auto;html=1;entryX=1;entryY=0.67;entryDx=0;entryDy=0;entryPerimeter=0;" edge="1" parent="1" source="lqIfvsUhiG68GUQfDP23-8" target="lqIfvsUhiG68GUQfDP23-10">
          <mxGeometry relative="1" as="geometry" />
        </mxCell>
        <mxCell id="lqIfvsUhiG68GUQfDP23-12" value="PC" style="points=[[0.03,0.03,0],[0.5,0,0],[0.97,0.03,0],[1,0.4,0],[0.97,0.745,0],[0.5,1,0],[0.03,0.745,0],[0,0.4,0]];verticalLabelPosition=bottom;sketch=0;html=1;verticalAlign=top;aspect=fixed;align=center;pointerEvents=1;shape=mxgraph.cisco19.workstation;fillColor=#005073;strokeColor=none;textShadow=1;" vertex="1" parent="1">
          <mxGeometry x="712.5699999999997" y="879.54" width="69.73" height="55.79" as="geometry" />
        </mxCell>
        <mxCell id="lqIfvsUhiG68GUQfDP23-13" style="edgeStyle=orthogonalEdgeStyle;rounded=0;orthogonalLoop=1;jettySize=auto;html=1;entryX=0.5;entryY=0;entryDx=0;entryDy=0;entryPerimeter=0;" edge="1" parent="1" source="lqIfvsUhiG68GUQfDP23-8" target="lqIfvsUhiG68GUQfDP23-12">
          <mxGeometry relative="1" as="geometry" />
        </mxCell>
        <mxCell id="lqIfvsUhiG68GUQfDP23-14" value="" style="points=[[0.005,0.09,0],[0.08,0,0],[0.76,0.25,0],[1,0.92,0],[0.91,0.995,0],[0.57,0.995,0],[0.045,0.955,0],[0.005,0.43,0]];verticalLabelPosition=bottom;sketch=0;html=1;verticalAlign=top;aspect=fixed;align=center;pointerEvents=1;shape=mxgraph.cisco19.3g_4g_indicator;fillColor=#005073;strokeColor=none;rotation=-225;" vertex="1" parent="1">
          <mxGeometry x="556.1999999999989" y="789.8900000000003" width="50" height="50" as="geometry" />
        </mxCell>
        <mxCell id="lqIfvsUhiG68GUQfDP23-15" value="移动设备" style="sketch=0;points=[[0.015,0.015,0],[0.985,0.015,0],[0.985,0.985,0],[0.015,0.985,0],[0.25,0,0],[0.5,0,0],[0.75,0,0],[1,0.25,0],[1,0.5,0],[1,0.75,0],[0.75,1,0],[0.5,1,0],[0.25,1,0],[0,0.75,0],[0,0.5,0],[0,0.25,0]];verticalLabelPosition=bottom;html=1;verticalAlign=top;aspect=fixed;align=center;pointerEvents=1;shape=mxgraph.cisco19.cell_phone;fillColor=#005073;strokeColor=none;fontColor=default;textShadow=1;" vertex="1" parent="1">
          <mxGeometry x="564.6399999999994" y="867" width="33.13" height="66.26" as="geometry" />
        </mxCell>
        <mxCell id="lqIfvsUhiG68GUQfDP23-16" value="楼层交换机" style="shape=mxgraph.cisco.switches.workgroup_switch;sketch=0;html=1;pointerEvents=1;dashed=0;fillColor=#036897;strokeColor=#ffffff;strokeWidth=2;verticalLabelPosition=bottom;verticalAlign=top;align=center;outlineConnect=0;fontSize=13;fontColor=#FF0000;textShadow=1;" vertex="1" parent="1">
          <mxGeometry x="894.4899999999998" y="693.9699999999993" width="93.07" height="36.06" as="geometry" />
        </mxCell>
        <mxCell id="lqIfvsUhiG68GUQfDP23-17" value="无线控制器" style="sketch=0;points=[[0.015,0.015,0],[0.985,0.015,0],[0.985,0.985,0],[0.015,0.985,0],[0.25,0,0],[0.5,0,0],[0.75,0,0],[1,0.25,0],[1,0.5,0],[1,0.75,0],[0.75,1,0],[0.5,1,0],[0.25,1,0],[0,0.75,0],[0,0.5,0],[0,0.25,0]];verticalLabelPosition=bottom;html=1;verticalAlign=top;align=center;pointerEvents=1;shape=mxgraph.cisco19.rect;prIcon=wireless_lan_controller;fillColor=#FAFAFA;strokeColor=#005073;textShadow=1;fontColor=#FF0000;" vertex="1" parent="1">
          <mxGeometry x="535.4599999999991" y="572" width="91.47" height="51.47" as="geometry" />
        </mxCell>
        <mxCell id="lqIfvsUhiG68GUQfDP23-18" style="edgeStyle=orthogonalEdgeStyle;rounded=0;orthogonalLoop=1;jettySize=auto;html=1;entryX=0.431;entryY=0.999;entryDx=0;entryDy=0;entryPerimeter=0;" edge="1" parent="1" source="lqIfvsUhiG68GUQfDP23-17" target="lqIfvsUhiG68GUQfDP23-7">
          <mxGeometry relative="1" as="geometry" />
        </mxCell>
        <mxCell id="lqIfvsUhiG68GUQfDP23-19" value="PC" style="points=[[0.03,0.03,0],[0.5,0,0],[0.97,0.03,0],[1,0.4,0],[0.97,0.745,0],[0.5,1,0],[0.03,0.745,0],[0,0.4,0]];verticalLabelPosition=bottom;sketch=0;html=1;verticalAlign=top;aspect=fixed;align=center;pointerEvents=1;shape=mxgraph.cisco19.workstation;fillColor=#005073;strokeColor=none;textShadow=1;" vertex="1" parent="1">
          <mxGeometry x="906.1599999999999" y="877.4700000000003" width="69.73" height="55.79" as="geometry" />
        </mxCell>
        <mxCell id="lqIfvsUhiG68GUQfDP23-20" style="edgeStyle=orthogonalEdgeStyle;rounded=0;orthogonalLoop=1;jettySize=auto;html=1;exitX=0.5;exitY=0.98;exitDx=0;exitDy=0;exitPerimeter=0;entryX=0.5;entryY=0;entryDx=0;entryDy=0;entryPerimeter=0;" edge="1" parent="1" source="lqIfvsUhiG68GUQfDP23-16" target="lqIfvsUhiG68GUQfDP23-19">
          <mxGeometry relative="1" as="geometry" />
        </mxCell>
        <mxCell id="lqIfvsUhiG68GUQfDP23-21" style="edgeStyle=orthogonalEdgeStyle;rounded=0;orthogonalLoop=1;jettySize=auto;html=1;exitX=0.98;exitY=0.5;exitDx=0;exitDy=0;exitPerimeter=0;entryX=0;entryY=0.5;entryDx=0;entryDy=0;entryPerimeter=0;" edge="1" parent="1" source="lqIfvsUhiG68GUQfDP23-34" target="lqIfvsUhiG68GUQfDP23-33">
          <mxGeometry relative="1" as="geometry" />
        </mxCell>
        <mxCell id="lqIfvsUhiG68GUQfDP23-22" value="财务系统" style="points=[[0.03,0.03,0],[0.5,0,0],[0.97,0.03,0],[1,0.4,0],[0.97,0.745,0],[0.5,1,0],[0.03,0.745,0],[0,0.4,0]];verticalLabelPosition=bottom;sketch=0;html=1;verticalAlign=top;aspect=fixed;align=center;pointerEvents=1;shape=mxgraph.cisco19.workstation;fillColor=#005073;strokeColor=none;textShadow=1;" vertex="1" parent="1">
          <mxGeometry x="1399.9999999999982" y="312.47999999999956" width="69.73" height="55.79" as="geometry" />
        </mxCell>
        <mxCell id="lqIfvsUhiG68GUQfDP23-23" value="专业软件平台" style="points=[[0.03,0.03,0],[0.5,0,0],[0.97,0.03,0],[1,0.4,0],[0.97,0.745,0],[0.5,1,0],[0.03,0.745,0],[0,0.4,0]];verticalLabelPosition=bottom;sketch=0;html=1;verticalAlign=top;aspect=fixed;align=center;pointerEvents=1;shape=mxgraph.cisco19.workstation;fillColor=#005073;strokeColor=none;textShadow=1;" vertex="1" parent="1">
          <mxGeometry x="1401.9999999999982" y="398.2699999999995" width="69.73" height="55.79" as="geometry" />
        </mxCell>
        <mxCell id="lqIfvsUhiG68GUQfDP23-24" value="网络应用" style="points=[[0.03,0.03,0],[0.5,0,0],[0.97,0.03,0],[1,0.4,0],[0.97,0.745,0],[0.5,1,0],[0.03,0.745,0],[0,0.4,0]];verticalLabelPosition=bottom;sketch=0;html=1;verticalAlign=top;aspect=fixed;align=center;pointerEvents=1;shape=mxgraph.cisco19.workstation;fillColor=#005073;strokeColor=none;textShadow=1;" vertex="1" parent="1">
          <mxGeometry x="1403.0299999999988" y="489.4800000000005" width="69.73" height="55.79" as="geometry" />
        </mxCell>
        <mxCell id="lqIfvsUhiG68GUQfDP23-25" value="文件共享服务器" style="points=[[0.03,0.03,0],[0.5,0,0],[0.97,0.03,0],[1,0.4,0],[0.97,0.745,0],[0.5,1,0],[0.03,0.745,0],[0,0.4,0]];verticalLabelPosition=bottom;sketch=0;html=1;verticalAlign=top;aspect=fixed;align=center;pointerEvents=1;shape=mxgraph.cisco19.workstation;fillColor=#005073;strokeColor=none;textShadow=1;" vertex="1" parent="1">
          <mxGeometry x="1403.0299999999988" y="574.7400000000007" width="69.73" height="55.79" as="geometry" />
        </mxCell>
        <mxCell id="lqIfvsUhiG68GUQfDP23-26" value="存储服务器" style="fontColor=#FF0000;verticalAlign=top;verticalLabelPosition=bottom;labelPosition=center;align=center;html=1;outlineConnect=0;fillColor=#CCCCCC;strokeColor=#6881B3;gradientColor=none;gradientDirection=north;strokeWidth=2;shape=mxgraph.networks.server_storage;textShadow=1;" vertex="1" parent="1">
          <mxGeometry x="1223.1000000000004" y="690.9300000000003" width="105" height="42.14" as="geometry" />
        </mxCell>
        <mxCell id="lqIfvsUhiG68GUQfDP23-27" style="edgeStyle=orthogonalEdgeStyle;rounded=0;orthogonalLoop=1;jettySize=auto;html=1;exitX=0.5;exitY=1;exitDx=0;exitDy=0;exitPerimeter=0;entryX=0.5;entryY=0;entryDx=0;entryDy=0;entryPerimeter=0;" edge="1" parent="1">
          <mxGeometry relative="1" as="geometry">
            <mxPoint x="1272.5999999999985" y="518.8699999999999" as="sourcePoint" />
            <mxPoint x="1272.6000000000004" y="690.9300000000003" as="targetPoint" />
          </mxGeometry>
        </mxCell>
        <mxCell id="lqIfvsUhiG68GUQfDP23-28" style="edgeStyle=orthogonalEdgeStyle;rounded=0;orthogonalLoop=1;jettySize=auto;html=1;entryX=0;entryY=0.4;entryDx=0;entryDy=0;entryPerimeter=0;" edge="1" parent="1" source="lqIfvsUhiG68GUQfDP23-33" target="lqIfvsUhiG68GUQfDP23-22">
          <mxGeometry relative="1" as="geometry">
            <Array as="points">
              <mxPoint x="1276" y="335" />
            </Array>
          </mxGeometry>
        </mxCell>
        <mxCell id="lqIfvsUhiG68GUQfDP23-29" style="edgeStyle=orthogonalEdgeStyle;rounded=0;orthogonalLoop=1;jettySize=auto;html=1;entryX=0;entryY=0.4;entryDx=0;entryDy=0;entryPerimeter=0;" edge="1" parent="1" source="lqIfvsUhiG68GUQfDP23-33" target="lqIfvsUhiG68GUQfDP23-23">
          <mxGeometry relative="1" as="geometry">
            <Array as="points">
              <mxPoint x="1366" y="476" />
              <mxPoint x="1366" y="420.9999999999991" />
            </Array>
          </mxGeometry>
        </mxCell>
        <mxCell id="lqIfvsUhiG68GUQfDP23-30" style="edgeStyle=orthogonalEdgeStyle;rounded=0;orthogonalLoop=1;jettySize=auto;html=1;entryX=0;entryY=0.4;entryDx=0;entryDy=0;entryPerimeter=0;" edge="1" parent="1" source="lqIfvsUhiG68GUQfDP23-33" target="lqIfvsUhiG68GUQfDP23-24">
          <mxGeometry relative="1" as="geometry">
            <Array as="points">
              <mxPoint x="1366" y="480" />
              <mxPoint x="1366" y="512" />
            </Array>
          </mxGeometry>
        </mxCell>
        <mxCell id="lqIfvsUhiG68GUQfDP23-31" value="" style="shape=note;whiteSpace=wrap;html=1;backgroundOutline=1;darkOpacity=0.05;size=14;fillColor=#fff2cc;strokeColor=#d6b656;" vertex="1" parent="1">
          <mxGeometry x="868.8999999999996" y="425" width="110" height="110" as="geometry" />
        </mxCell>
        <mxCell id="lqIfvsUhiG68GUQfDP23-32" style="edgeStyle=orthogonalEdgeStyle;rounded=0;orthogonalLoop=1;jettySize=auto;html=1;entryX=0;entryY=0.4;entryDx=0;entryDy=0;entryPerimeter=0;" edge="1" parent="1" source="lqIfvsUhiG68GUQfDP23-33" target="lqIfvsUhiG68GUQfDP23-25">
          <mxGeometry relative="1" as="geometry">
            <mxPoint x="1276" y="519" as="sourcePoint" />
            <mxPoint x="1403" y="597" as="targetPoint" />
            <Array as="points">
              <mxPoint x="1301.5" y="597" />
            </Array>
          </mxGeometry>
        </mxCell>
        <mxCell id="lqIfvsUhiG68GUQfDP23-33" value="VMware集群" style="fontColor=#FF0000;verticalAlign=top;verticalLabelPosition=bottom;labelPosition=center;align=center;html=1;outlineConnect=0;fillColor=#CCCCCC;strokeColor=#6881B3;gradientColor=none;gradientDirection=north;strokeWidth=2;shape=mxgraph.networks.server;textShadow=1;" vertex="1" parent="1">
          <mxGeometry x="1221.199999999999" y="423.8699999999999" width="108.8" height="95" as="geometry" />
        </mxCell>
        <mxCell id="lqIfvsUhiG68GUQfDP23-34" value="服务器交换机" style="shape=mxgraph.cisco.switches.workgroup_switch;sketch=0;html=1;pointerEvents=1;dashed=0;fillColor=#036897;strokeColor=#ffffff;strokeWidth=2;verticalLabelPosition=bottom;verticalAlign=top;align=center;outlineConnect=0;fontSize=13;fontColor=#FF0000;textShadow=1;" vertex="1" parent="1">
          <mxGeometry x="1033.1000000000004" y="454.0599999999986" width="93.07" height="36.06" as="geometry" />
        </mxCell>
        <mxCell id="lqIfvsUhiG68GUQfDP23-35" value="" style="shape=note;whiteSpace=wrap;html=1;backgroundOutline=1;darkOpacity=0.05;size=14;fillColor=#fff2cc;strokeColor=#d6b656;" vertex="1" parent="1">
          <mxGeometry x="248.89999999999964" y="275" width="270" height="260" as="geometry" />
        </mxCell>
        <mxCell id="lqIfvsUhiG68GUQfDP23-36" style="edgeStyle=orthogonalEdgeStyle;rounded=0;orthogonalLoop=1;jettySize=auto;html=1;entryX=0.5;entryY=0;entryDx=0;entryDy=0;entryPerimeter=0;exitX=0.566;exitY=0.994;exitDx=0;exitDy=0;exitPerimeter=0;" edge="1" parent="1" source="lqIfvsUhiG68GUQfDP23-7" target="lqIfvsUhiG68GUQfDP23-16">
          <mxGeometry relative="1" as="geometry">
            <mxPoint x="758.8999999999996" y="511.52999999999975" as="sourcePoint" />
            <Array as="points">
              <mxPoint x="753.8999999999996" y="597.5299999999997" />
              <mxPoint x="940.8999999999996" y="597.5299999999997" />
            </Array>
          </mxGeometry>
        </mxCell>
        <mxCell id="lqIfvsUhiG68GUQfDP23-37" style="edgeStyle=orthogonalEdgeStyle;rounded=0;orthogonalLoop=1;jettySize=auto;html=1;exitX=1;exitY=0.5;exitDx=0;exitDy=0;exitPerimeter=0;entryX=0;entryY=0.5;entryDx=0;entryDy=0;entryPerimeter=0;endArrow=none;endFill=0;" edge="1" parent="1" source="lqIfvsUhiG68GUQfDP23-44" target="lqIfvsUhiG68GUQfDP23-7">
          <mxGeometry relative="1" as="geometry">
            <mxPoint x="504.079999999999" y="470.9950000000008" as="sourcePoint" />
          </mxGeometry>
        </mxCell>
        <mxCell id="lqIfvsUhiG68GUQfDP23-38" value="服务器防火墙" style="sketch=0;points=[[0.015,0.015,0],[0.985,0.015,0],[0.985,0.985,0],[0.015,0.985,0],[0.25,0,0],[0.5,0,0],[0.75,0,0],[1,0.25,0],[1,0.5,0],[1,0.75,0],[0.75,1,0],[0.5,1,0],[0.25,1,0],[0,0.75,0],[0,0.5,0],[0,0.25,0]];verticalLabelPosition=bottom;html=1;verticalAlign=top;aspect=fixed;align=center;pointerEvents=1;shape=mxgraph.cisco19.rect;prIcon=firewall;fillColor=#FAFAFA;strokeColor=#005073;fontSize=13;fontColor=#FF0000;labelBackgroundColor=none;labelBorderColor=none;textShadow=1;" vertex="1" parent="1">
          <mxGeometry x="885.3999999999996" y="440.5199999999995" width="79" height="61.71" as="geometry" />
        </mxCell>
        <mxCell id="lqIfvsUhiG68GUQfDP23-39" style="edgeStyle=orthogonalEdgeStyle;rounded=0;orthogonalLoop=1;jettySize=auto;html=1;exitX=1;exitY=0.5;exitDx=0;exitDy=0;exitPerimeter=0;entryX=0;entryY=0.5;entryDx=0;entryDy=0;entryPerimeter=0;endArrow=none;endFill=0;" edge="1" parent="1" source="lqIfvsUhiG68GUQfDP23-7" target="lqIfvsUhiG68GUQfDP23-38">
          <mxGeometry relative="1" as="geometry" />
        </mxCell>
        <mxCell id="lqIfvsUhiG68GUQfDP23-40" style="edgeStyle=orthogonalEdgeStyle;rounded=0;orthogonalLoop=1;jettySize=auto;html=1;exitX=1;exitY=0.5;exitDx=0;exitDy=0;exitPerimeter=0;entryX=0;entryY=0.5;entryDx=0;entryDy=0;entryPerimeter=0;endArrow=none;endFill=0;" edge="1" parent="1" source="lqIfvsUhiG68GUQfDP23-38" target="lqIfvsUhiG68GUQfDP23-34">
          <mxGeometry relative="1" as="geometry" />
        </mxCell>
        <mxCell id="lqIfvsUhiG68GUQfDP23-41" value="出口防火墙A" style="sketch=0;points=[[0.015,0.015,0],[0.985,0.015,0],[0.985,0.985,0],[0.015,0.985,0],[0.25,0,0],[0.5,0,0],[0.75,0,0],[1,0.25,0],[1,0.5,0],[1,0.75,0],[0.75,1,0],[0.5,1,0],[0.25,1,0],[0,0.75,0],[0,0.5,0],[0,0.25,0]];verticalLabelPosition=bottom;html=1;verticalAlign=top;aspect=fixed;align=center;pointerEvents=1;shape=mxgraph.cisco19.rect;prIcon=firewall;fillColor=#FAFAFA;strokeColor=#005073;fontSize=15;fontColor=#FF0000;labelBackgroundColor=none;labelBorderColor=none;textShadow=1;" vertex="1" parent="1">
          <mxGeometry x="417.0199999999995" y="288.77000000000044" width="83.87" height="65.52" as="geometry" />
        </mxCell>
        <mxCell id="lqIfvsUhiG68GUQfDP23-42" style="edgeStyle=orthogonalEdgeStyle;rounded=0;orthogonalLoop=1;jettySize=auto;html=1;exitX=1;exitY=0.5;exitDx=0;exitDy=0;exitPerimeter=0;entryX=0.011;entryY=0.418;entryDx=0;entryDy=0;entryPerimeter=0;endArrow=none;endFill=0;" edge="1" parent="1" source="lqIfvsUhiG68GUQfDP23-41" target="lqIfvsUhiG68GUQfDP23-7">
          <mxGeometry relative="1" as="geometry">
            <Array as="points">
              <mxPoint x="579.8999999999996" y="321" />
              <mxPoint x="579.8999999999996" y="465" />
              <mxPoint x="696.8999999999996" y="465" />
            </Array>
          </mxGeometry>
        </mxCell>
        <mxCell id="lqIfvsUhiG68GUQfDP23-43" value="宽带交换机" style="shape=mxgraph.cisco.switches.workgroup_switch;sketch=0;html=1;pointerEvents=1;dashed=0;fillColor=#036897;strokeColor=#ffffff;strokeWidth=2;verticalLabelPosition=bottom;verticalAlign=top;align=center;outlineConnect=0;fontSize=13;fontColor=#FF0000;textShadow=1;" vertex="1" parent="1">
          <mxGeometry x="268.89999999999964" y="303.4999999999991" width="93.07" height="36.06" as="geometry" />
        </mxCell>
        <mxCell id="lqIfvsUhiG68GUQfDP23-44" value="出口防火墙B" style="sketch=0;points=[[0.015,0.015,0],[0.985,0.015,0],[0.985,0.985,0],[0.015,0.985,0],[0.25,0,0],[0.5,0,0],[0.75,0,0],[1,0.25,0],[1,0.5,0],[1,0.75,0],[0.75,1,0],[0.5,1,0],[0.25,1,0],[0,0.75,0],[0,0.5,0],[0,0.25,0]];verticalLabelPosition=bottom;html=1;verticalAlign=top;aspect=fixed;align=center;pointerEvents=1;shape=mxgraph.cisco19.rect;prIcon=firewall;fillColor=#FAFAFA;strokeColor=#005073;fontSize=15;fontColor=#FF0000;labelBackgroundColor=none;labelBorderColor=none;textShadow=1;" vertex="1" parent="1">
          <mxGeometry x="417.0199999999995" y="439.3299999999999" width="83.87" height="65.52" as="geometry" />
        </mxCell>
        <mxCell id="lqIfvsUhiG68GUQfDP23-45" value="" style="endArrow=none;html=1;rounded=0;entryX=0;entryY=0.98;entryDx=0;entryDy=0;entryPerimeter=0;exitX=0.458;exitY=0.567;exitDx=0;exitDy=0;exitPerimeter=0;strokeColor=#FF0000;" edge="1" parent="1" source="lqIfvsUhiG68GUQfDP23-46" target="lqIfvsUhiG68GUQfDP23-47">
          <mxGeometry width="50" height="50" relative="1" as="geometry">
            <mxPoint x="568.8999999999996" y="485" as="sourcePoint" />
            <mxPoint x="618.8999999999996" y="435" as="targetPoint" />
          </mxGeometry>
        </mxCell>
        <mxCell id="lqIfvsUhiG68GUQfDP23-46" value="" style="sketch=0;pointerEvents=1;shadow=0;dashed=0;html=1;strokeColor=#006EAF;fillColor=#1ba1e2;labelPosition=center;verticalLabelPosition=bottom;outlineConnect=0;verticalAlign=top;align=center;shape=mxgraph.office.clouds.private_cloud;fontColor=#ffffff;" vertex="1" parent="1">
          <mxGeometry x="118.96999999999935" y="527" width="109.03" height="67" as="geometry" />
        </mxCell>
        <mxCell id="lqIfvsUhiG68GUQfDP23-47" value="宽带交换机" style="shape=mxgraph.cisco.switches.workgroup_switch;sketch=0;html=1;pointerEvents=1;dashed=0;fillColor=#036897;strokeColor=#ffffff;strokeWidth=2;verticalLabelPosition=bottom;verticalAlign=top;align=center;outlineConnect=0;fontSize=13;fontColor=#FF0000;textShadow=1;" vertex="1" parent="1">
          <mxGeometry x="268.89999999999964" y="453.33999999999924" width="93.07" height="36.06" as="geometry" />
        </mxCell>
        <mxCell id="lqIfvsUhiG68GUQfDP23-48" value="" style="endArrow=none;html=1;rounded=0;entryX=0;entryY=0.5;entryDx=0;entryDy=0;entryPerimeter=0;exitX=0.98;exitY=0.5;exitDx=0;exitDy=0;exitPerimeter=0;strokeColor=#FF0000;" edge="1" parent="1" source="lqIfvsUhiG68GUQfDP23-47" target="lqIfvsUhiG68GUQfDP23-41">
          <mxGeometry width="50" height="50" relative="1" as="geometry">
            <mxPoint x="178.89999999999964" y="575" as="sourcePoint" />
            <mxPoint x="278.89999999999964" y="499" as="targetPoint" />
          </mxGeometry>
        </mxCell>
        <mxCell id="lqIfvsUhiG68GUQfDP23-49" value="" style="endArrow=none;html=1;rounded=0;entryX=0;entryY=0.5;entryDx=0;entryDy=0;entryPerimeter=0;exitX=0.98;exitY=0.5;exitDx=0;exitDy=0;exitPerimeter=0;strokeColor=#FF0000;" edge="1" parent="1" source="lqIfvsUhiG68GUQfDP23-47" target="lqIfvsUhiG68GUQfDP23-44">
          <mxGeometry width="50" height="50" relative="1" as="geometry">
            <mxPoint x="371.89999999999964" y="463" as="sourcePoint" />
            <mxPoint x="427.89999999999964" y="363" as="targetPoint" />
          </mxGeometry>
        </mxCell>
        <mxCell id="lqIfvsUhiG68GUQfDP23-50" value="" style="endArrow=none;html=1;rounded=0;entryX=0;entryY=0.98;entryDx=0;entryDy=0;entryPerimeter=0;exitX=0.449;exitY=0.522;exitDx=0;exitDy=0;exitPerimeter=0;strokeColor=#FF9933;dashed=1;" edge="1" parent="1" source="lqIfvsUhiG68GUQfDP23-51" target="lqIfvsUhiG68GUQfDP23-43">
          <mxGeometry width="50" height="50" relative="1" as="geometry">
            <mxPoint x="178.89999999999964" y="575" as="sourcePoint" />
            <mxPoint x="278.89999999999964" y="499" as="targetPoint" />
          </mxGeometry>
        </mxCell>
        <mxCell id="lqIfvsUhiG68GUQfDP23-51" value="" style="sketch=0;pointerEvents=1;shadow=0;dashed=0;html=1;strokeColor=#006EAF;fillColor=#1ba1e2;labelPosition=center;verticalLabelPosition=bottom;outlineConnect=0;verticalAlign=top;align=center;shape=mxgraph.office.clouds.private_cloud;fontColor=#ffffff;" vertex="1" parent="1">
          <mxGeometry x="120" y="350" width="109.03" height="67" as="geometry" />
        </mxCell>
        <mxCell id="lqIfvsUhiG68GUQfDP23-52" value="" style="endArrow=none;html=1;rounded=0;entryX=0;entryY=0.5;entryDx=0;entryDy=0;entryPerimeter=0;exitX=0.55;exitY=0.522;exitDx=0;exitDy=0;exitPerimeter=0;dashed=1;dashPattern=1 1;strokeColor=#3399FF;" edge="1" parent="1" source="lqIfvsUhiG68GUQfDP23-53" target="lqIfvsUhiG68GUQfDP23-43">
          <mxGeometry width="50" height="50" relative="1" as="geometry">
            <mxPoint x="178.89999999999964" y="395" as="sourcePoint" />
            <mxPoint x="278.89999999999964" y="349" as="targetPoint" />
          </mxGeometry>
        </mxCell>
        <mxCell id="lqIfvsUhiG68GUQfDP23-53" value="&lt;font color=&quot;#000000&quot;&gt;SD-WAN专线 *1&lt;/font&gt;" style="sketch=0;pointerEvents=1;shadow=0;dashed=0;html=1;strokeColor=#006EAF;fillColor=#1ba1e2;labelPosition=center;verticalLabelPosition=bottom;outlineConnect=0;verticalAlign=top;align=center;shape=mxgraph.office.clouds.private_cloud;fontColor=#ffffff;" vertex="1" parent="1">
          <mxGeometry x="118.96999999999935" y="210" width="109.03" height="67" as="geometry" />
        </mxCell>
        <mxCell id="lqIfvsUhiG68GUQfDP23-54" value="" style="endArrow=none;html=1;rounded=0;entryX=0;entryY=0.5;entryDx=0;entryDy=0;entryPerimeter=0;exitX=0.98;exitY=0.5;exitDx=0;exitDy=0;exitPerimeter=0;strokeColor=#FF9933;dashed=1;" edge="1" parent="1" source="lqIfvsUhiG68GUQfDP23-43" target="lqIfvsUhiG68GUQfDP23-41">
          <mxGeometry width="50" height="50" relative="1" as="geometry">
            <mxPoint x="188.89999999999964" y="255" as="sourcePoint" />
            <mxPoint x="278.89999999999964" y="332" as="targetPoint" />
          </mxGeometry>
        </mxCell>
        <mxCell id="lqIfvsUhiG68GUQfDP23-55" value="" style="endArrow=none;html=1;rounded=0;entryX=0;entryY=0.5;entryDx=0;entryDy=0;entryPerimeter=0;exitX=0.98;exitY=0.5;exitDx=0;exitDy=0;exitPerimeter=0;strokeColor=#FF9933;dashed=1;" edge="1" parent="1" source="lqIfvsUhiG68GUQfDP23-43" target="lqIfvsUhiG68GUQfDP23-44">
          <mxGeometry width="50" height="50" relative="1" as="geometry">
            <mxPoint x="369.89999999999964" y="332" as="sourcePoint" />
            <mxPoint x="426.89999999999964" y="332" as="targetPoint" />
          </mxGeometry>
        </mxCell>
        <mxCell id="lqIfvsUhiG68GUQfDP23-56" value="" style="endArrow=none;html=1;rounded=0;entryX=0;entryY=0.25;entryDx=0;entryDy=0;entryPerimeter=0;exitX=0.87;exitY=0.74;exitDx=0;exitDy=0;exitPerimeter=0;dashed=1;dashPattern=1 1;strokeColor=#3399FF;" edge="1" parent="1" source="lqIfvsUhiG68GUQfDP23-43" target="lqIfvsUhiG68GUQfDP23-44">
          <mxGeometry width="50" height="50" relative="1" as="geometry">
            <mxPoint x="188.89999999999964" y="255" as="sourcePoint" />
            <mxPoint x="278.89999999999964" y="332" as="targetPoint" />
          </mxGeometry>
        </mxCell>
        <mxCell id="lqIfvsUhiG68GUQfDP23-57" value="" style="endArrow=none;html=1;rounded=0;entryX=0;entryY=0.75;entryDx=0;entryDy=0;entryPerimeter=0;exitX=0.87;exitY=0.74;exitDx=0;exitDy=0;exitPerimeter=0;dashed=1;dashPattern=1 1;strokeColor=#3399FF;" edge="1" parent="1" source="lqIfvsUhiG68GUQfDP23-43" target="lqIfvsUhiG68GUQfDP23-41">
          <mxGeometry width="50" height="50" relative="1" as="geometry">
            <mxPoint x="359.89999999999964" y="340" as="sourcePoint" />
            <mxPoint x="426.89999999999964" y="466" as="targetPoint" />
          </mxGeometry>
        </mxCell>
        <mxCell id="lqIfvsUhiG68GUQfDP23-58" value="&lt;font color=&quot;#ff0000&quot; style=&quot;font-size: 13px;&quot;&gt;位置变更&lt;/font&gt;" style="text;strokeColor=none;align=center;fillColor=none;html=1;verticalAlign=middle;whiteSpace=wrap;rounded=0;shadow=0;glass=0;textShadow=1;fontSize=13;" vertex="1" parent="1">
          <mxGeometry x="343.89999999999964" y="535" width="80" height="30" as="geometry" />
        </mxCell>
        <mxCell id="lqIfvsUhiG68GUQfDP23-59" value="&lt;font color=&quot;#ff0000&quot; style=&quot;font-size: 13px;&quot;&gt;位置变更&lt;/font&gt;" style="text;strokeColor=none;align=center;fillColor=none;html=1;verticalAlign=middle;whiteSpace=wrap;rounded=0;shadow=0;glass=0;textShadow=1;fontSize=13;" vertex="1" parent="1">
          <mxGeometry x="883.8999999999996" y="533.8699999999999" width="80" height="30" as="geometry" />
        </mxCell>
      </root>
    </mxGraphModel>
  </diagram>
</mxfile>
